<?xml version="1.0" encoding="UTF-8" standalone="no"?>
<svg
   xmlns:dc="http://purl.org/dc/elements/1.1/"
   xmlns:cc="http://creativecommons.org/ns#"
   xmlns:rdf="http://www.w3.org/1999/02/22-rdf-syntax-ns#"
   xmlns:svg="http://www.w3.org/2000/svg"
   xmlns="http://www.w3.org/2000/svg"
   xmlns:sodipodi="http://sodipodi.sourceforge.net/DTD/sodipodi-0.dtd"
   xmlns:inkscape="http://www.inkscape.org/namespaces/inkscape"
   width="24"
   height="24"
   viewBox="0 0 24 24"
   fill="none"
   stroke="currentColor"
   stroke-width="2"
   stroke-linecap="round"
   stroke-linejoin="round"
   class="feather feather-shopping-cart"
   id="svg2"
   version="1.1"
   inkscape:version="0.48.5 r10040"
   sodipodi:docname="C:\Users\user\AppData\Local\Temp\Temp2_feather.zip\shopping-cart.svg">
  <metadata
     id="metadata14">
    <rdf:RDF>
      <cc:Work
         rdf:about="">
        <dc:format>image/svg+xml</dc:format>
        <dc:type
           rdf:resource="http://purl.org/dc/dcmitype/StillImage" />
        <dc:title></dc:title>
      </cc:Work>
    </rdf:RDF>
  </metadata>
  <defs
     id="defs12" />
  <sodipodi:namedview
     pagecolor="#ffffff"
     bordercolor="#666666"
     borderopacity="1"
     objecttolerance="10"
     gridtolerance="10"
     guidetolerance="10"
     inkscape:pageopacity="0"
     inkscape:pageshadow="2"
     inkscape:window-width="1280"
     inkscape:window-height="738"
     id="namedview10"
     showgrid="false"
     inkscape:zoom="9.8333333"
     inkscape:cx="5.7718624"
     inkscape:cy="12"
     inkscape:window-x="-8"
     inkscape:window-y="-8"
     inkscape:window-maximized="1"
     inkscape:current-layer="svg2" />
  <circle
     cx="9"
     cy="21"
     r="1"
     id="circle4"
     style="fill:#d40000;stroke:#d40000" />
  <circle
     cx="20"
     cy="21"
     r="1"
     id="circle6"
     style="fill:#d40000;stroke:#d40000" />
  <path
     d="M1 1h4l2.68 13.39a2 2 0 0 0 2 1.61h9.72a2 2 0 0 0 2-1.61L23 6H6"
     id="path8"
     style="stroke:#d40000" />
  <path
     sodipodi:type="arc"
     style="fill:#000000;fill-opacity:1;fill-rule:evenodd;stroke:#0000ff;stroke-width:0;stroke-linejoin:round;stroke-miterlimit:4;stroke-opacity:1;stroke-dasharray:none;stroke-dashoffset:0"
     id="path2991"
     sodipodi:cx="-26.694916"
     sodipodi:cy="10.271187"
     sodipodi:rx="12.864407"
     sodipodi:ry="9.0508471"
     d="m -39.555494,10.491969 a 12.864407,9.0508471 0 0 1 -0.0016,-0.05362"
     sodipodi:start="3.1171967"
     sodipodi:end="3.1231223"
     sodipodi:open="true" />
  <path
     sodipodi:type="arc"
     style="fill:#000000;fill-opacity:1;fill-rule:evenodd;stroke:#0000ff;stroke-width:0;stroke-linejoin:round;stroke-miterlimit:4;stroke-opacity:1;stroke-dasharray:none;stroke-dashoffset:0"
     id="path2995"
     sodipodi:cx="-39.305084"
     sodipodi:cy="3.7118645"
     sodipodi:rx="11.644068"
     sodipodi:ry="5.6440678"
     d="m -27.661016,3.7118645 a 11.644068,5.6440678 0 1 1 -23.288136,0 11.644068,5.6440678 0 1 1 23.288136,0 z" />
  <path
     sodipodi:type="arc"
     style="fill:#d40000;fill-opacity:1;fill-rule:evenodd;stroke:#0000ff;stroke-width:0;stroke-linejoin:round;stroke-miterlimit:4;stroke-opacity:1;stroke-dasharray:none;stroke-dashoffset:0"
     id="path2997"
     sodipodi:cx="-12"
     sodipodi:cy="-1.5762712"
     sodipodi:rx="8.5423727"
     sodipodi:ry="8.2881355"
     d="m -3.4576273,-1.5762712 a 8.5423727,8.2881355 0 1 1 -17.0847457,0 8.5423727,8.2881355 0 1 1 17.0847457,0 z"
     transform="matrix(0.60119047,0,0,0.54601226,27.807507,9.0471039)" />
  <path
     sodipodi:type="arc"
     style="fill:#ffffff;fill-opacity:1;fill-rule:evenodd;stroke:#d40000;stroke-width:0;stroke-linejoin:round;stroke-miterlimit:4;stroke-opacity:1;stroke-dasharray:none;stroke-dashoffset:0"
     id="path2999"
     sodipodi:cx="-33.305084"
     sodipodi:cy="24.457626"
     sodipodi:rx="7.6779661"
     sodipodi:ry="7.5762711"
     d="m -25.627118,24.457626 a 7.6779661,7.5762711 0 1 1 -15.355932,0 7.6779661,7.5762711 0 1 1 15.355932,0 z"
     transform="matrix(0.45387889,0,0,0.41775435,35.730076,-2.0586035)" />
  <rect
     style="fill:#d40000;fill-opacity:1;fill-rule:evenodd;stroke:#0000ff;stroke-width:0;stroke-linejoin:round;stroke-miterlimit:4;stroke-opacity:1;stroke-dasharray:none;stroke-dashoffset:0"
     id="rect3003"
     width="1.087043"
     height="4.8777065"
     x="19.904518"
     y="5.8258986"
     transform="matrix(0.99995307,-0.00968823,0.04052773,0.99917841,0,0)"
     ry="0.26584655" />
  <rect
     style="fill:#000000;fill-opacity:1;fill-rule:evenodd;stroke:#0000ff;stroke-width:0;stroke-linejoin:round;stroke-miterlimit:4;stroke-opacity:1;stroke-dasharray:none;stroke-dashoffset:0"
     id="rect3003-1"
     width="2.3389828"
     height="21.457628"
     x="-36.311371"
     y="-30.560116"
     transform="matrix(0.00287361,-0.99999587,0.99999587,0.00287361,0,0)"
     ry="1.1694914" />
  <rect
     style="fill:#d40000;fill-opacity:1;fill-rule:evenodd;stroke:#0000ff;stroke-width:0;stroke-linejoin:round;stroke-miterlimit:4;stroke-opacity:1;stroke-dasharray:none;stroke-dashoffset:0"
     id="rect3003-7"
     width="0.91102147"
     height="5.8185797"
     x="7.9477143"
     y="-23.549017"
     transform="matrix(-0.00525473,0.99998619,-0.99988603,0.01509745,0,0)"
     ry="0.31712636" />
</svg>
